<svg width="25" height="24" viewBox="0 0 25 24" fill="none" xmlns="http://www.w3.org/2000/svg">
<path fill-rule="evenodd" clip-rule="evenodd" d="M5.5 5C5.5 4.20435 5.81607 3.44129 6.37868 2.87868C6.94129 2.31607 7.70435 2 8.5 2H16.5C17.2956 2 18.0587 2.31607 18.6213 2.87868C19.1839 3.44129 19.5 4.20435 19.5 5V11C19.5 11.2652 19.3946 11.5196 19.2071 11.7071C19.0196 11.8946 18.7652 12 18.5 12C18.2348 12 17.9804 11.8946 17.7929 11.7071C17.6054 11.5196 17.5 11.2652 17.5 11V5C17.5 4.73478 17.3946 4.48043 17.2071 4.29289C17.0196 4.10536 16.7652 4 16.5 4H8.5C8.23478 4 7.98043 4.10536 7.79289 4.29289C7.60536 4.48043 7.5 4.73478 7.5 5V19.131L11.668 16.353C11.9144 16.1888 12.2039 16.1011 12.5 16.1011C12.7961 16.1011 13.0856 16.1888 13.332 16.353L14.055 16.835C14.1643 16.9079 14.2581 17.0016 14.3311 17.1107C14.4042 17.2199 14.455 17.3423 14.4808 17.4711C14.5065 17.5999 14.5066 17.7325 14.4811 17.8614C14.4555 17.9902 14.4049 18.1127 14.332 18.222C14.2591 18.3313 14.1654 18.4251 14.0563 18.4981C13.9471 18.5712 13.8247 18.622 13.6959 18.6478C13.5671 18.6735 13.4345 18.6736 13.3056 18.6481C13.1768 18.6225 13.0543 18.5719 12.945 18.499L12.5 18.202L7.832 21.314C6.835 21.978 5.5 21.264 5.5 20.066V5ZM19.5 15C19.7652 15 20.0196 15.1054 20.2071 15.2929C20.3946 15.4804 20.5 15.7348 20.5 16V18H22.5C22.7652 18 23.0196 18.1054 23.2071 18.2929C23.3946 18.4804 23.5 18.7348 23.5 19C23.5 19.2652 23.3946 19.5196 23.2071 19.7071C23.0196 19.8946 22.7652 20 22.5 20H20.5V22C20.5 22.2652 20.3946 22.5196 20.2071 22.7071C20.0196 22.8946 19.7652 23 19.5 23C19.2348 23 18.9804 22.8946 18.7929 22.7071C18.6054 22.5196 18.5 22.2652 18.5 22V20H16.5C16.2348 20 15.9804 19.8946 15.7929 19.7071C15.6054 19.5196 15.5 19.2652 15.5 19C15.5 18.7348 15.6054 18.4804 15.7929 18.2929C15.9804 18.1054 16.2348 18 16.5 18H18.5V16C18.5 15.7348 18.6054 15.4804 18.7929 15.2929C18.9804 15.1054 19.2348 15 19.5 15Z" fill="#09244B"/>
</svg>
