<svg width="24" height="24" viewBox="0 0 24 24" fill="none" xmlns="http://www.w3.org/2000/svg">
<path d="M16.5007 11C17.4563 10.9999 18.3954 11.2488 19.2255 11.7221C20.0556 12.1955 20.748 12.8769 21.2346 13.6993C21.7212 14.5217 21.9852 15.4567 22.0004 16.4121C22.0157 17.3675 21.7818 18.3105 21.3217 19.148L21.7077 20.459C21.7588 20.6323 21.7622 20.8161 21.7176 20.9911C21.673 21.1661 21.582 21.3259 21.4543 21.4536C21.3266 21.5813 21.1668 21.6722 20.9918 21.7168C20.8168 21.7614 20.633 21.758 20.4597 21.707L19.1497 21.321C18.4147 21.7246 17.5971 21.9548 16.7594 21.994C15.9217 22.0332 15.0862 21.8803 14.3167 21.547C13.5472 21.2137 12.8641 20.7089 12.3196 20.0712C11.7751 19.4334 11.3836 18.6796 11.1751 17.8673C10.9667 17.0551 10.9467 16.2059 11.1167 15.3847C11.2868 14.5636 11.6423 13.7922 12.1562 13.1295C12.6701 12.4668 13.3288 11.9305 14.0817 11.5614C14.8347 11.1923 15.6621 11.0003 16.5007 11ZM11.0007 3C12.9906 3.00027 14.9244 3.65974 16.4999 4.87535C18.0753 6.09096 19.2037 7.79422 19.7087 9.719C18.1952 9.00161 16.4851 8.81149 14.851 9.17894C13.2169 9.54638 11.7528 10.4502 10.6921 11.7465C9.63137 13.0427 9.03506 14.6567 8.9982 16.3312C8.96135 18.0057 9.48606 19.6444 10.4887 20.986C9.04161 20.9055 7.63568 20.4748 6.39173 19.731L3.74173 20.511C3.56791 20.5623 3.38348 20.5657 3.20786 20.521C3.03224 20.4763 2.87192 20.3851 2.74378 20.2569C2.61564 20.1288 2.52441 19.9685 2.4797 19.7929C2.43499 19.6172 2.43846 19.4328 2.48973 19.259L3.26973 16.609C2.45516 15.2428 2.01722 13.6851 2.0005 12.0946C1.98378 10.5041 2.38888 8.93754 3.17455 7.55452C3.96022 6.17149 5.09838 5.02139 6.47314 4.22134C7.84789 3.42129 9.41012 2.99987 11.0007 3Z" fill="#262626"/>
</svg>
