<svg width="24" height="24" viewBox="0 0 24 24" fill="none" xmlns="http://www.w3.org/2000/svg">
<path fill-rule="evenodd" clip-rule="evenodd" d="M12.7083 15.7073C12.5208 15.8948 12.2665 16.0001 12.0013 16.0001C11.7362 16.0001 11.4818 15.8948 11.2943 15.7073L5.63732 10.0503C5.54181 9.9581 5.46563 9.84775 5.41322 9.72575C5.36081 9.60374 5.33322 9.47252 5.33207 9.33974C5.33092 9.20696 5.35622 9.07529 5.4065 8.95239C5.45678 8.82949 5.53103 8.71784 5.62492 8.62395C5.71882 8.53006 5.83047 8.4558 5.95337 8.40552C6.07626 8.35524 6.20794 8.32994 6.34072 8.33109C6.4735 8.33225 6.60472 8.35983 6.72672 8.41224C6.84873 8.46465 6.95907 8.54083 7.05132 8.63634L12.0013 13.5863L16.9513 8.63634C17.1399 8.45418 17.3925 8.35339 17.6547 8.35567C17.9169 8.35795 18.1677 8.46312 18.3531 8.64852C18.5385 8.83393 18.6437 9.08474 18.646 9.34694C18.6483 9.60914 18.5475 9.86174 18.3653 10.0503L12.7083 15.7073Z" fill="#09244B"/>
</svg>
