<svg width="24" height="24" viewBox="0 0 24 24" fill="none" xmlns="http://www.w3.org/2000/svg">
<path fill-rule="evenodd" clip-rule="evenodd" d="M13.7067 8.46466C13.8941 8.65219 13.9994 8.9065 13.9994 9.17166C13.9994 9.43683 13.8941 9.69113 13.7067 9.87866L11.5857 11.9997L13.7067 14.1207C13.7996 14.2135 13.8733 14.3237 13.9236 14.4451C13.9739 14.5664 13.9998 14.6965 13.9999 14.8278C13.9999 14.9592 13.9741 15.0892 13.9239 15.2106C13.8736 15.332 13.8 15.4423 13.7072 15.5352C13.6143 15.6281 13.5041 15.7018 13.3827 15.7521C13.2614 15.8024 13.1314 15.8283 13 15.8284C12.8687 15.8284 12.7386 15.8026 12.6172 15.7524C12.4959 15.7021 12.3856 15.6285 12.2927 15.5357L9.46466 12.7067C9.27719 12.5191 9.17188 12.2648 9.17188 11.9997C9.17188 11.7345 9.27719 11.4802 9.46466 11.2927L12.2927 8.46466C12.4802 8.27719 12.7345 8.17188 12.9997 8.17188C13.2648 8.17188 13.5191 8.27719 13.7067 8.46466Z" fill="#09244B"/>
</svg>
