<svg width="24" height="24" viewBox="0 0 24 24" fill="none" xmlns="http://www.w3.org/2000/svg">
<path fill-rule="evenodd" clip-rule="evenodd" d="M10.2932 8.46466C10.1057 8.65219 10.0004 8.9065 10.0004 9.17166C10.0004 9.43683 10.1057 9.69113 10.2932 9.87866L12.4142 11.9997L10.2932 14.1207C10.1056 14.3082 10.0001 14.5625 10 14.8278C9.99991 15.0931 10.1052 15.3475 10.2927 15.5352C10.4802 15.7228 10.7346 15.8283 10.9998 15.8284C11.2651 15.8285 11.5196 15.7232 11.7072 15.5357L14.5362 12.7067C14.7237 12.5191 14.829 12.2648 14.829 11.9997C14.829 11.7345 14.7237 11.4802 14.5362 11.2927L11.7072 8.46466C11.5197 8.27719 11.2654 8.17188 11.0002 8.17188C10.735 8.17188 10.4807 8.27719 10.2932 8.46466Z" fill="#09244B"/>
</svg>
