<svg width="24" height="24" viewBox="0 0 24 24" fill="none" xmlns="http://www.w3.org/2000/svg">
<path fill-rule="evenodd" clip-rule="evenodd" d="M15.5366 13.7067C15.4437 13.7996 15.3334 13.8734 15.212 13.9237C15.0906 13.974 14.9605 13.9999 14.8291 13.9999C14.6977 13.9999 14.5675 13.974 14.4461 13.9237C14.3247 13.8734 14.2145 13.7996 14.1216 13.7067L12.0006 11.5857L9.87958 13.7067C9.69207 13.8943 9.4377 13.9998 9.17243 13.9999C8.90716 14 8.65272 13.8947 8.46508 13.7072C8.27744 13.5197 8.17197 13.2653 8.17188 13C8.17178 12.7347 8.27707 12.4803 8.46458 12.2927L11.2936 9.46466C11.4811 9.27719 11.7354 9.17188 12.0006 9.17188C12.2657 9.17188 12.5201 9.27719 12.7076 9.46466L15.5366 12.2927C15.724 12.4802 15.8294 12.7345 15.8294 12.9997C15.8294 13.2648 15.724 13.5191 15.5366 13.7067Z" fill="#09244B"/>
</svg>
