<svg width="24" height="24" viewBox="0 0 24 24" fill="none" xmlns="http://www.w3.org/2000/svg">
<path d="M10.7722 2.68804C11.1003 2.43283 11.4997 2.28617 11.9149 2.26843C12.3302 2.25068 12.7406 2.36275 13.0892 2.58904L13.2282 2.68904L21.6122 9.20904C22.3332 9.77004 21.9822 10.901 21.1132 10.994L20.9972 11H20.0002V19C20.0004 19.5046 19.8098 19.9906 19.4667 20.3606C19.1237 20.7306 18.6534 20.9572 18.1502 20.995L18.0002 21H6.00024C5.49584 20.9999 5.0101 20.8093 4.64033 20.4662C4.27056 20.1231 4.04407 19.653 4.00624 19.15L4.00024 19V11H3.00324C2.09024 11 1.67124 9.89204 2.30024 9.28504L2.38824 9.20904L10.7722 2.68804ZM12.0002 4.26704L5.62524 9.22504C5.85424 9.41004 6.00024 9.69304 6.00024 10.01V19H9.00024V14C9.00024 13.2044 9.31631 12.4413 9.87892 11.8787C10.4415 11.3161 11.2046 11 12.0002 11C12.7959 11 13.559 11.3161 14.1216 11.8787C14.6842 12.4413 15.0002 13.2044 15.0002 14V19H18.0002V10.01C18.0002 9.69304 18.1462 9.41004 18.3752 9.22504L12.0002 4.26704ZM12.0002 13C11.735 13 11.4807 13.1054 11.2931 13.2929C11.1056 13.4805 11.0002 13.7348 11.0002 14V19H13.0002V14C13.0002 13.7348 12.8949 13.4805 12.7073 13.2929C12.5198 13.1054 12.2655 13 12.0002 13Z" fill="#595959"/>
</svg>
