<svg width="24" height="24" viewBox="0 0 24 24" fill="none" xmlns="http://www.w3.org/2000/svg">
<path fill-rule="evenodd" clip-rule="evenodd" d="M8.526 3.10396C8.83369 3.00148 9.16631 3.00148 9.474 3.10396L15 4.94596L20.289 3.18296C20.4844 3.11785 20.6925 3.10009 20.896 3.13115C21.0996 3.16221 21.2929 3.24119 21.46 3.3616C21.6271 3.48201 21.7632 3.64039 21.8571 3.8237C21.951 4.00702 21.9999 4.21001 22 4.41596V17.64C22 17.9548 21.9009 18.2617 21.7167 18.5171C21.5326 18.7725 21.2727 18.9635 20.974 19.063L15.474 20.896C15.166 20.999 14.834 20.999 14.526 20.896L9 19.054L3.711 20.817C3.51561 20.8821 3.30755 20.8998 3.10395 20.8688C2.90036 20.8377 2.70705 20.7587 2.53997 20.6383C2.37288 20.5179 2.23679 20.3595 2.14291 20.1762C2.04903 19.9929 2.00005 19.7899 2 19.584V6.35996C2.00003 6.0451 2.09914 5.73823 2.28328 5.48283C2.46743 5.22743 2.72727 5.03646 3.026 4.93696L8.526 3.10396ZM8 17.28V5.38696L4 6.72096V18.613L8 17.279V17.28ZM10 5.38796V17.28L14 18.614V6.71996L10 5.38596V5.38796ZM16 6.72196V18.614L20 17.28V5.38696L16 6.72196Z" fill="#595959"/>
</svg>
