<svg width="24" height="24" viewBox="0 0 24 24" fill="none" xmlns="http://www.w3.org/2000/svg">
<g clip-path="url(#clip0_1144_18715)">
<path fill-rule="evenodd" clip-rule="evenodd" d="M5.00066 9.00024C5.00063 8.03191 5.2015 7.07411 5.59058 6.18739C5.97965 5.30067 6.54847 4.50431 7.26106 3.84867C7.97366 3.19303 8.81453 2.69237 9.73052 2.37834C10.6465 2.0643 11.6177 1.94373 12.5827 2.02424C12.7151 2.03297 12.8444 2.06797 12.9631 2.12718C13.0819 2.1864 13.1877 2.26866 13.2743 2.36916C13.3609 2.46967 13.4267 2.58641 13.4678 2.71258C13.5088 2.83875 13.5244 2.97184 13.5135 3.10408C13.5026 3.23632 13.4655 3.36508 13.4044 3.48284C13.3432 3.6006 13.2593 3.70502 13.1574 3.79001C13.0555 3.875 12.9377 3.93886 12.8109 3.97787C12.684 4.01688 12.5507 4.03027 12.4187 4.01724C11.7292 3.9594 11.0352 4.04528 10.3807 4.26944C9.72612 4.49361 9.12521 4.85119 8.61595 5.31955C8.1067 5.78792 7.7002 6.35687 7.42216 6.99043C7.14412 7.62399 7.00059 8.30835 7.00066 9.00024V12.5282C7.00063 12.9941 6.8921 13.4536 6.68366 13.8702L5.61866 16.0002H18.3827L17.3177 13.8702C17.1093 13.4536 17.0007 12.9941 17.0007 12.5282V11.0002C17.0007 10.735 17.106 10.4807 17.2936 10.2931C17.4811 10.1056 17.7354 10.0002 18.0007 10.0002C18.2659 10.0002 18.5202 10.1056 18.7078 10.2931C18.8953 10.4807 19.0007 10.735 19.0007 11.0002V12.5282C19.0005 12.6834 19.0365 12.8364 19.1057 12.9752L20.8227 16.4082C20.9065 16.576 20.9461 16.7623 20.9377 16.9497C20.9293 17.137 20.8731 17.3191 20.7745 17.4786C20.6759 17.6381 20.5382 17.7698 20.3744 17.8611C20.2106 17.9524 20.0262 18.0003 19.8387 18.0002H15.8747C15.6522 18.8585 15.1511 19.6186 14.4499 20.1612C13.7488 20.7038 12.8873 20.9982 12.0007 20.9982C11.1141 20.9982 10.2526 20.7038 9.5514 20.1612C8.85023 19.6186 8.3491 18.8585 8.12666 18.0002H4.16266C3.97514 18.0003 3.79072 17.9524 3.62693 17.8611C3.46314 17.7698 3.3254 17.6381 3.22681 17.4786C3.12822 17.3191 3.07204 17.137 3.06361 16.9497C3.05518 16.7623 3.09479 16.576 3.17866 16.4082L4.89466 12.9752C4.96421 12.8365 5.0005 12.6834 5.00066 12.5282V9.00024ZM10.2687 18.0002C10.4442 18.3043 10.6967 18.5567 11.0007 18.7322C11.3047 18.9077 11.6496 19.0001 12.0007 19.0001C12.3517 19.0001 12.6966 18.9077 13.0006 18.7322C13.3046 18.5567 13.5571 18.3043 13.7327 18.0002H10.2687Z" fill="#09244B"/>
<circle cx="18" cy="5" r="3" fill="#FF3333"/>
</g>
<defs>
<clipPath id="clip0_1144_18715">
<rect width="24" height="24" fill="white"/>
</clipPath>
</defs>
</svg>
